# xmcd
#
# Track frame offsets:
#	150
#	14200
#	31946
#	47798
#	62925
#	81972
#	100126
#	115946
#	132888
#	150076
#	168251
#
# Disc length: 2526 seconds
#
# Revision: 17
# Processed by: cddbd v1.5.2PL0 Copyright (c) Steve Scherf et al.
# Submitted via: Jack! The Knife 20 Magnifico
#
DISCID=8809dc0b
DTITLE=Laura Pausini - Resta In Ascolto
DYEAR=2004
DGENRE=Pop
TTITLE0=La Prospettiva Di Me
TTITLE1=Vivimi
TTITLE2=Resta In Ascolto
TTITLE3=Il Tuo Nome In Maiuscolo
TTITLE4=Benedetta Passione
TTITLE5=Come Se Non Fosse Stato Mai Amore
TTITLE6=Così Importante
TTITLE7=Parlami
TTITLE8=Dove l'aria è Polvere
TTITLE9=Amare Veramente
TTITLE10=Mi Abbandono A Te
EXTD=Laura Pausini and Gabriele Parisi
EXTT0=Daniel Vuletic
EXTT1=Biagio Antonacci
EXTT2=Daniel Vuletic
EXTT3=Daniel Vuletic
EXTT4=Curreri, Grandi
EXTT5=Daniel Vuletic
EXTT6=Cesare Chiodo
EXTT7=Daniel Vuletic
EXTT8=Antonio Galbiati
EXTT9=Cesare Chiodo
EXTT10=Madonna, Nowels
PLAYORDER=
